<?xml version="1.0" encoding="UTF-8" standalone="no"?>
<!-- Created with Inkscape (http://www.inkscape.org/) -->

<svg
   xmlns:dc="http://purl.org/dc/elements/1.1/"
   xmlns:cc="http://creativecommons.org/ns#"
   xmlns:rdf="http://www.w3.org/1999/02/22-rdf-syntax-ns#"
   xmlns:svg="http://www.w3.org/2000/svg"
   xmlns="http://www.w3.org/2000/svg"
   xmlns:sodipodi="http://sodipodi.sourceforge.net/DTD/sodipodi-0.dtd"
   xmlns:inkscape="http://www.inkscape.org/namespaces/inkscape"
   width="300mm"
   height="300mm"
   viewBox="0 0 300 300"
   version="1.1"
   id="svg8"
   inkscape:version="0.92.3 (2405546, 2018-03-11)"
   sodipodi:docname="easy-icon.svg">
  <defs
     id="defs2" />
  <sodipodi:namedview
     id="base"
     pagecolor="#ffffff"
     bordercolor="#666666"
     borderopacity="1.0"
     inkscape:pageopacity="0.0"
     inkscape:pageshadow="2"
     inkscape:zoom="0.35"
     inkscape:cx="-585.71429"
     inkscape:cy="560"
     inkscape:document-units="mm"
     inkscape:current-layer="layer1"
     showgrid="false"
     inkscape:pagecheckerboard="true"
     inkscape:window-width="1920"
     inkscape:window-height="1014"
     inkscape:window-x="-8"
     inkscape:window-y="-8"
     inkscape:window-maximized="1"
     showguides="false" />
  <metadata
     id="metadata5">
    <rdf:RDF>
      <cc:Work
         rdf:about="">
        <dc:format>image/svg+xml</dc:format>
        <dc:type
           rdf:resource="http://purl.org/dc/dcmitype/StillImage" />
        <dc:title></dc:title>
      </cc:Work>
    </rdf:RDF>
  </metadata>
  <g
     inkscape:label="Layer 1"
     inkscape:groupmode="layer"
     id="layer1"
     transform="translate(0,3)"
     style="display:inline">
    <path
       style="opacity:1;fill:#008000;stroke:none;stroke-width:0.39706823;stroke-linecap:round;stroke-linejoin:round;stroke-miterlimit:4;stroke-dasharray:none;stroke-opacity:1"
       d="M 78.619048,142.3946 141.35838,205.52976 283.48214,72.099793 242.50952,36.952384 145.19956,163.2227 109.34852,109.19984 Z"
       id="path10"
       inkscape:connector-curvature="0"
       sodipodi:nodetypes="ccccccc" />
  </g>
  <g
     inkscape:groupmode="layer"
     id="layer2"
     inkscape:label="Layer 2"
     style="display:inline">
    <path
       style="opacity:1;fill:#008000;stroke:none;stroke-width:1.75748026;stroke-linecap:round;stroke-linejoin:round;stroke-miterlimit:4;stroke-dasharray:none"
       d="M 534.28516,145.28711 A 442.85715,442.85715 0 0 0 91.427734,588.14453 442.85715,442.85715 0 0 0 534.28516,1031.002 442.85715,442.85715 0 0 0 977.14258,588.14453 442.85715,442.85715 0 0 0 968.78125,503.25195 l -92.14258,97.69727 a 344.28571,339.99998 0 0 1 -343.78125,330.05273 344.28571,339.99998 0 0 1 -344.28515,-340 344.28571,339.99998 0 0 1 344.28515,-340 344.28571,339.99998 0 0 1 148.78906,33.86133 l 74.72657,-79.23242 A 442.85715,442.85715 0 0 0 534.28516,145.28711 Z"
       transform="scale(0.26458333)"
       id="path818"
       inkscape:connector-curvature="0" />
  </g>
</svg>
