<?xml version="1.0" encoding="UTF-8" standalone="no"?>
<svg
   xmlns:dc="http://purl.org/dc/elements/1.1/"
   xmlns:cc="http://creativecommons.org/ns#"
   xmlns:rdf="http://www.w3.org/1999/02/22-rdf-syntax-ns#"
   xmlns:svg="http://www.w3.org/2000/svg"
   xmlns="http://www.w3.org/2000/svg"
   xmlns:sodipodi="http://sodipodi.sourceforge.net/DTD/sodipodi-0.dtd"
   xmlns:inkscape="http://www.inkscape.org/namespaces/inkscape"
   viewBox="0 0 50 50"
   version="1.1"
   width="100"
   height="100"
   id="svg5"
   sodipodi:docname="Twitter2.svg"
   inkscape:version="0.92.3 (2405546, 2018-03-11)"
   inkscape:export-filename="C:\Users\guest1\glpi-plugin-fork\images\Twitter2.png"
   inkscape:export-xdpi="40.001495"
   inkscape:export-ydpi="40.001495">
  <metadata
     id="metadata11">
    <rdf:RDF>
      <cc:Work
         rdf:about="">
        <dc:format>image/svg+xml</dc:format>
        <dc:type
           rdf:resource="http://purl.org/dc/dcmitype/StillImage" />
        <dc:title></dc:title>
      </cc:Work>
    </rdf:RDF>
  </metadata>
  <defs
     id="defs9" />
  <sodipodi:namedview
     pagecolor="blue"
     bordercolor="#666666"
     borderopacity="1"
     objecttolerance="10"
     gridtolerance="10"
     guidetolerance="10"
     inkscape:pageopacity="0"
     inkscape:pageshadow="2"
     inkscape:window-width="1091"
     inkscape:window-height="739"
     id="namedview7"
     showgrid="false"
     inkscape:pagecheckerboard="true"
     inkscape:zoom="2.36"
     inkscape:cx="50"
     inkscape:cy="50"
     inkscape:window-x="0"
     inkscape:window-y="0"
     inkscape:window-maximized="0"
     inkscape:current-layer="svg5" />
  <g
     id="surface1"
     transform="translate(0.42372881,-2.118644)">
    <path
       d="m 50.0625,10.4375 c -1.847656,0.820313 -3.828125,1.371094 -5.910156,1.621094 2.125,-1.273438 3.757812,-3.289063 4.523437,-5.6875 -1.984375,1.175781 -4.191406,2.03125 -6.53125,2.492187 -1.875,-2 -4.546875,-3.246093 -7.503906,-3.246093 -5.679687,0 -10.285156,4.601562 -10.285156,10.28125 0,0.804687 0.09375,1.589843 0.269531,2.34375 C 16.078125,17.8125 8.503906,13.71875 3.429688,7.496094 2.542969,9.019531 2.039063,10.785156 2.039063,12.667969 c 0,3.566406 1.8125,6.714844 4.574218,8.5625 -1.6875,-0.05469 -3.273437,-0.519531 -4.660156,-1.289063 0,0.04297 0,0.08594 0,0.128907 0,4.984375 3.546875,9.136718 8.246094,10.085937 -0.859375,0.234375 -1.769531,0.359375 -2.707031,0.359375 -0.664063,0 -1.308594,-0.0625 -1.9375,-0.1875 1.3125,4.082031 5.109375,7.0625 9.605468,7.144531 -3.515625,2.757813 -7.949218,4.398438 -12.769531,4.398438 -0.832031,0 -1.648437,-0.04687 -2.4492188,-0.144531 4.5468748,2.921875 9.9531248,4.621093 15.7617188,4.621093 18.914063,0 29.257813,-15.667968 29.257813,-29.253906 0,-0.445312 -0.01172,-0.894531 -0.02734,-1.332031 C 46.941406,14.3125 48.683594,12.5 50.0625,10.4375 Z"
       id="path2"
       inkscape:connector-curvature="0" />
  </g>
  <g
     inkscape:groupmode="layer"
     id="layer1"
     inkscape:label="Layer 1"
     style="display:inline">
    <path
       id="path14"
       transform="scale(0.5)"
       style="fill:#ff0000;stroke-width:1"
       d="m 146.27734,-0.484375 c -0.24759,0.0809959 -0.49632,0.15802837 -0.74414,0.23828125 0.0355,0.0871358 0.0621,0.17832156 0.082,0.2734375 z M 21.449219,62.474609 c -0.117455,0.132425 -0.221258,0.275839 -0.324219,0.419922 0.265874,-0.140069 0.533096,-0.277728 0.798828,-0.417969 -0.15453,0.0087 -0.317617,-0.0038 -0.474609,-0.002 z m -11.201172,4.269532 c -0.123255,0.05307 -0.247736,0.103407 -0.3710939,0.15625 -0.033276,0.02404 -0.040856,0.03622 -0.076172,0.06055 -0.2556126,0.176085 -0.5215414,0.33501 -0.7910156,0.490234 0.2123001,-0.08434 0.4038823,-0.158185 0.75,-0.289063 0.1591489,-0.143474 0.3168584,-0.289955 0.4882814,-0.417968 z" />
  </g>
</svg>
